<?xml version="1.0" encoding="UTF-8"?>
<svg width="20px" height="20px" viewBox="0 0 20 20" version="1.1" xmlns="http://www.w3.org/2000/svg" xmlns:xlink="http://www.w3.org/1999/xlink">
    <title>fuzhi</title>
    <defs>
        <filter id="filter-1">
            <feColorMatrix in="SourceGraphic" type="matrix" values="0 0 0 0 0.149020 0 0 0 0 0.149020 0 0 0 0 0.149020 0 0 0 1.000000 0"></feColorMatrix>
        </filter>
    </defs>
    <g id="文件存储-V0.3" stroke="none" stroke-width="1" fill="none" fill-rule="evenodd">
        <g id="保管密钥--V0.3" transform="translate(-1238.000000, -500.000000)">
            <g id="编组-3" transform="translate(612.000000, 359.000000)">
                <g id="fuzhi" transform="translate(50.000000, 133.000000)" filter="url(#filter-1)">
                    <g transform="translate(576.000000, 8.000000)">
                        <path d="M19.1211909,0.78125 L19.1192475,0.779306592 C18.6372823,0.299284826 17.9745802,0 17.2477456,0 L6.63285137,0 C5.90212998,0 5.23942786,0.299284826 4.75940609,0.779306592 C4.27938433,1.25932836 3.9800995,1.92397388 3.9800995,2.65275187 L5.30744714,2.65275187 C5.30744714,2.28933458 5.45708955,1.95701182 5.69807214,1.71602923 C5.93905473,1.47504664 6.27137749,1.32540423 6.63479478,1.32540423 L17.2477456,1.32540423 C17.6131063,1.32540423 17.9454291,1.47310323 18.1844683,1.71214241 L18.1864117,1.71408582 C18.4254509,1.953125 18.5750933,2.28544776 18.5750933,2.65080846 L18.5750933,13.2637593 C18.5750933,13.6271766 18.4254509,13.9594994 18.1844683,14.200482 L18.1844683,14.2024254 C17.9454291,14.4414646 17.6131063,14.5891636 17.2477456,14.5891636 L17.2477456,15.9165112 C17.9745802,15.9165112 18.6392257,15.6172264 19.1211909,15.1352612 L19.1231343,15.1372046 C19.6031561,14.6571828 19.9024409,13.9925373 19.9024409,13.2637593 L19.9024409,2.65469527 C19.9004975,1.9278607 19.6012127,1.26321517 19.1211909,0.78125 Z" id="路径" fill="#000000" fill-rule="nonzero"></path>
                        <path d="M15.139148,4.75940609 C14.6571828,4.27938433 13.9944807,3.9800995 13.2676461,3.9800995 L2.65275187,3.9800995 C1.92203047,3.9800995 1.25932836,4.27938433 0.779306592,4.75940609 C0.299284826,5.23942786 0,5.90407338 0,6.63285137 L0,17.2458022 C0,17.9726368 0.299284826,18.6372823 0.779306592,19.1173041 L0.779306592,19.1192475 C1.25932836,19.5992693 1.92397388,19.8985541 2.65275187,19.8985541 L13.2657027,19.8985541 C13.9925373,19.8985541 14.6571828,19.5992693 15.139148,19.1173041 L15.1410914,19.1192475 C15.6211132,18.6392257 15.920398,17.9745802 15.920398,17.2458022 L15.920398,6.63285137 C15.920398,5.90601679 15.6211132,5.24331468 15.1410914,4.7613495 L15.139148,4.75940609 Z M14.5930504,17.2458022 C14.5930504,17.6092195 14.443408,17.9415423 14.2024254,18.1825249 L14.2024254,18.1844683 C13.9633862,18.4235075 13.6310634,18.5731499 13.2657027,18.5731499 L2.65275187,18.5731499 C2.28933458,18.5731499 1.95701182,18.4235075 1.71602923,18.1825249 L1.71408582,18.1844683 C1.47504664,17.9434857 1.32540423,17.6111629 1.32540423,17.2458022 L1.32540423,6.63285137 C1.32540423,6.26943408 1.47504664,5.93711132 1.71602923,5.69612873 C1.95701182,5.45514614 2.28739117,5.30550373 2.65275187,5.30550373 L13.2657027,5.30550373 C13.6310634,5.30550373 13.9633862,5.45320274 14.2024254,5.69224192 L14.2043688,5.69418532 C14.443408,5.9332245 14.5930504,6.26554726 14.5930504,6.63090796 L14.5930504,17.2458022 L14.5930504,17.2458022 Z" id="形状" fill="#000000" fill-rule="nonzero"></path>
                    </g>
                </g>
            </g>
        </g>
    </g>
</svg>