<svg width="168" height="42" viewBox="0 0 168 42" fill="none" xmlns="http://www.w3.org/2000/svg">
<path fill-rule="evenodd" clip-rule="evenodd" d="M131.423 28.9528C131.509 28.8283 131.697 28.8413 131.764 28.9765L133.292 32.0314C133.325 32.0986 133.394 32.1411 133.469 32.1411H137.729C137.876 32.1411 137.972 31.9859 137.906 31.854L134.389 24.82C134.357 24.7553 134.362 24.6782 134.403 24.6187L138.085 19.2775C138.102 19.2519 138.114 19.2225 138.118 19.1917L138.579 15.813H133.875L133.408 19.2385C133.408 19.2587 133.402 19.2784 133.391 19.295L132.451 20.6623C132.422 20.7038 132.36 20.6994 132.337 20.6544L131.699 19.3791C131.666 19.3119 131.597 19.2695 131.522 19.2695H127.261C127.114 19.2695 127.018 19.4239 127.083 19.5558L129.582 24.6108C129.614 24.6752 129.608 24.7519 129.568 24.8111L124.875 31.6423C124.806 31.7421 124.665 31.7578 124.576 31.6754L121.92 29.2111C121.829 29.1261 121.837 28.9786 121.939 28.9051L124.614 26.9617C124.658 26.93 124.687 26.8817 124.694 26.8281L125.062 24.1441C125.075 24.0458 125.159 23.9726 125.258 23.9726H126.119C126.218 23.9726 126.302 23.8993 126.315 23.8011L126.663 21.2584C126.679 21.1393 126.587 21.0331 126.467 21.0331H125.719C125.597 21.0331 125.504 20.9244 125.523 20.8041L125.606 20.272C125.625 20.1517 125.532 20.043 125.41 20.043H121.697C121.599 20.043 121.516 20.1142 121.501 20.2108L121.398 20.8654C121.383 20.9619 121.3 21.0331 121.202 21.0331H118.664C118.543 21.0331 118.45 20.9244 118.468 20.8041L118.552 20.272C118.57 20.1517 118.477 20.043 118.355 20.043H114.642C114.544 20.043 114.461 20.1142 114.446 20.2108L114.344 20.8654C114.328 20.9619 114.245 21.0331 114.148 21.0331H113.346C113.246 21.0331 113.162 21.1064 113.149 21.2046L112.801 23.7473C112.785 23.8664 112.877 23.9726 112.998 23.9726H113.688C113.808 23.9726 113.901 24.0787 113.884 24.1979L113.527 26.8093C113.518 26.8736 113.541 26.9382 113.589 26.9822L115.656 28.8832C115.748 28.968 115.739 29.1157 115.638 29.1895L112.086 31.7824C111.931 31.8956 112.011 32.1411 112.203 32.1411H117.409C117.451 32.1411 117.492 32.1281 117.525 32.1038L118.332 31.5238C118.409 31.4688 118.513 31.4751 118.582 31.5388L119.18 32.0887C119.217 32.1224 119.265 32.1411 119.314 32.1411H129.127C129.192 32.1411 129.253 32.1089 129.29 32.0551L131.423 28.9528ZM120.795 25.3731C120.788 25.4271 120.759 25.476 120.715 25.5083L119.277 26.5671C119.2 26.6236 119.094 26.6176 119.024 26.5527L117.919 25.5269C117.872 25.4835 117.849 25.4202 117.857 25.3569L118.009 24.1464C118.021 24.0471 118.105 23.9726 118.205 23.9726H120.745C120.864 23.9726 120.957 24.0772 120.942 24.1956L120.795 25.3731Z" fill="white"/>
<path d="M138.842 15.1543C138.828 15.1543 138.814 15.1557 138.801 15.1584H133.779C133.766 15.1557 133.752 15.1543 133.738 15.1543H132.991C132.907 15.1543 132.833 15.2069 132.804 15.2858L131.846 17.9621C131.818 18.041 131.743 18.0937 131.66 18.0937H127.377C127.24 18.0937 127.144 17.9582 127.19 17.8291L129.72 10.6809C129.743 10.6151 129.73 10.542 129.686 10.4883L129.438 10.188C129.331 10.0587 129.423 9.86328 129.591 9.86328H134.458C134.595 9.86328 134.691 9.99895 134.645 10.1281L133.997 11.95C133.952 12.0792 134.047 12.2148 134.184 12.2148H139.741C139.861 12.2148 139.953 12.321 139.937 12.4401L139.589 14.9828C139.576 15.081 139.492 15.1543 139.393 15.1543H138.842Z" fill="white"/>
<path d="M115.465 16.33C115.517 16.33 115.549 16.3878 115.521 16.4318L113.523 19.552C113.438 19.684 113.533 19.8574 113.69 19.8574H116.746C116.814 19.8574 116.877 19.8231 116.913 19.7665L118.206 17.761C118.245 17.7013 118.337 17.736 118.327 17.8063L118.063 19.6305C118.046 19.7502 118.139 19.8574 118.26 19.8574H121.974C122.072 19.8574 122.156 19.785 122.17 19.6874L122.42 17.9638C122.43 17.8971 122.521 17.886 122.547 17.9485L123.271 19.7336C123.301 19.8084 123.374 19.8574 123.455 19.8574H126.555C126.695 19.8574 126.791 19.7151 126.739 19.5847L125.462 16.4209C125.445 16.3774 125.477 16.33 125.523 16.33H127.172C127.271 16.33 127.354 16.2579 127.369 16.1606L127.743 13.6179C127.761 13.4981 127.668 13.3906 127.547 13.3906H123.302C123.181 13.3906 123.089 13.284 123.106 13.1646L123.537 10.0893C123.554 9.96989 123.461 9.86328 123.341 9.86328H119.082C118.938 9.86328 118.842 10.0131 118.902 10.1445L119.275 10.955C119.29 10.9897 119.296 11.0282 119.291 11.0659L118.983 13.2203C118.969 13.318 118.885 13.3906 118.787 13.3906H114.427C114.328 13.3906 114.245 13.4627 114.23 13.5601L113.856 16.1027C113.838 16.2225 113.931 16.33 114.052 16.33H115.465Z" fill="white"/>
<path d="M124.787 10.4512C124.705 10.4512 124.632 10.501 124.602 10.5767L123.831 12.5315C123.779 12.6617 123.875 12.8027 124.015 12.8027H127.116C127.197 12.8027 127.271 12.7529 127.301 12.6772L128.072 10.7224C128.124 10.5922 128.028 10.4512 127.888 10.4512H124.787Z" fill="white"/>
<path d="M118.212 12.8027C118.33 12.8027 118.422 12.7007 118.41 12.5835L118.204 10.6288C118.193 10.5278 118.108 10.4512 118.006 10.4512H114.878C114.76 10.4512 114.668 10.5532 114.681 10.6703L114.887 12.6251C114.897 12.7261 114.982 12.8027 115.084 12.8027H118.212Z" fill="white"/>
<path d="M81.111 10.4512C81.2313 10.4512 81.3239 10.5573 81.3076 10.6765L80.9596 13.2191C80.9462 13.3174 80.8623 13.3906 80.7631 13.3906H74.2939C74.1983 13.3906 74.1163 13.4587 74.0989 13.5527L73.3735 17.4502H66.9067L67.6185 13.6253C67.6413 13.5033 67.5476 13.3906 67.4235 13.3906H61.1753C61.055 13.3906 60.9624 13.2845 60.9787 13.1653L61.3267 10.6227C61.3401 10.5244 61.4241 10.4512 61.5232 10.4512H81.111Z" fill="white"/>
<path d="M82.0988 18.0937H74.3605V18.1048H65.6333V18.0937H58.4273C58.3289 18.0937 58.2453 18.1658 58.231 18.2632L57.8563 20.8058C57.8386 20.9256 57.9315 21.0331 58.0526 21.0331H63.8298C63.9875 21.0331 64.0821 21.2082 63.9958 21.3402L57.1265 31.834C57.0401 31.966 57.1348 32.1411 57.2925 32.1411H61.7379C61.8049 32.1411 61.8673 32.1074 61.9039 32.0514L69.0577 21.1229C69.0944 21.0669 69.1568 21.0331 69.2237 21.0331H70.4643C70.547 21.0331 70.6209 21.0843 70.65 21.1617L74.7304 32.0125C74.7595 32.0899 74.8335 32.1411 74.9162 32.1411H79.4119C79.5505 32.1411 79.6464 32.0026 79.5976 31.8729L75.6223 21.3014C75.5735 21.1716 75.6694 21.0331 75.808 21.0331H81.7241C81.8225 21.0331 81.906 20.961 81.9203 20.8637L82.2951 18.321C82.3127 18.2012 82.2199 18.0937 82.0988 18.0937Z" fill="white"/>
<path d="M109.575 10.4512C109.695 10.4512 109.788 10.5573 109.771 10.6765L109.424 13.2191C109.41 13.3174 109.326 13.3906 109.227 13.3906H102.758C102.662 13.3906 102.58 13.4587 102.563 13.5527L101.837 17.4502H95.3706L96.0824 13.6253C96.1051 13.5033 96.0115 13.3906 95.8874 13.3906H89.6392C89.5189 13.3906 89.4263 13.2845 89.4426 13.1653L89.7905 10.6227C89.804 10.5244 89.8879 10.4512 89.9871 10.4512H109.575Z" fill="white"/>
<path d="M94.4969 18.0937H86.8911C86.7927 18.0937 86.7092 18.1658 86.6949 18.2632L86.3202 20.8058C86.3025 20.9256 86.3953 21.0331 86.5164 21.0331H92.2936C92.4513 21.0331 92.546 21.2082 92.4596 21.3402L85.5904 31.834C85.504 31.966 85.5986 32.1411 85.7564 32.1411H90.2018C90.2687 32.1411 90.3312 32.1074 90.3678 32.0514L97.5216 21.1229C97.5583 21.0669 97.6207 21.0331 97.6876 21.0331H98.9282C99.0108 21.0331 99.0848 21.0843 99.1139 21.1617L103.194 32.0125C103.223 32.0899 103.297 32.1411 103.38 32.1411H107.876C108.014 32.1411 108.11 32.0026 108.062 31.8729L104.086 21.3014C104.037 21.1716 104.133 21.0331 104.272 21.0331H110.188C110.286 21.0331 110.37 20.961 110.384 20.8637L110.759 18.321C110.777 18.2012 110.684 18.0937 110.563 18.0937H103.224V18.1048H94.4969V18.0937Z" fill="white"/>
<path d="M156.205 17.9711C156.208 17.9498 156.215 17.9292 156.224 17.9099L157.52 15.2938H161.306L159.892 18.2484H161.089C161.187 18.2484 161.271 18.1768 161.286 18.0798L161.606 15.9726C161.62 15.8757 161.704 15.804 161.802 15.804H164.836C164.956 15.804 165.049 15.9105 165.032 16.0298L164.755 18.0226C164.738 18.1419 164.831 18.2484 164.951 18.2484H166.502C166.622 18.2484 166.715 18.3551 166.698 18.4745L166.383 20.7078C166.369 20.8056 166.285 20.8784 166.186 20.8784H164.209C164.111 20.8784 164.027 20.95 164.012 21.0469L163.771 22.6279C163.765 22.6679 163.796 22.704 163.837 22.704H166.255C166.375 22.704 166.468 22.8103 166.451 22.9295L166.104 25.4412C166.09 25.5394 166.006 25.6125 165.907 25.6125H163.415C163.382 25.6125 163.354 25.6368 163.35 25.6696L163.01 28.1331C162.996 28.2312 162.912 28.3044 162.813 28.3044H158.789C158.669 28.3044 158.576 28.1981 158.593 28.0789L158.922 25.6876C158.928 25.6479 158.897 25.6125 158.857 25.6125H155.076C154.956 25.6125 154.863 25.5061 154.88 25.3869L155.227 22.8752C155.241 22.7771 155.324 22.704 155.424 22.704H159.278C159.311 22.704 159.339 22.6801 159.344 22.6478L159.579 21.1067C159.597 20.9866 159.504 20.8784 159.382 20.8784H156.035C155.915 20.8784 155.822 20.7723 155.838 20.6531L156.205 17.9711Z" fill="white"/>
<path d="M161.685 14.6392C161.705 14.6321 161.727 14.6283 161.75 14.6283H167.454C167.553 14.6283 167.637 14.555 167.651 14.4568L167.999 11.9141C168.015 11.795 167.922 11.6888 167.802 11.6888H163.048L163.777 10.1789C163.841 10.0471 163.745 9.89422 163.598 9.89422H159.294C159.131 9.89422 159.038 10.0791 159.134 10.2102L159.603 10.8485C159.648 10.9085 159.654 10.9881 159.621 11.0547L159.359 11.5792C159.325 11.6464 159.257 11.6888 159.181 11.6888H156.878C156.779 11.6888 156.695 11.7621 156.681 11.8603L156.334 14.403C156.317 14.5221 156.41 14.6283 156.53 14.6283H157.53C157.553 14.6283 157.575 14.6321 157.596 14.6392H161.685Z" fill="white"/>
<path d="M155.412 31.5842C155.387 31.5842 155.363 31.5796 155.34 31.5706L153.17 30.7253C153.071 30.6866 152.958 30.7334 152.916 30.8313L152.642 31.4646C152.61 31.5372 152.539 31.5842 152.459 31.5842H148.237C148.09 31.5842 147.994 31.4296 148.059 31.2978L149.388 28.6117C149.398 28.5926 149.404 28.5721 149.407 28.5509L150.609 19.8664C150.626 19.7471 150.533 19.6408 150.413 19.6408H150.033C149.912 19.6408 149.82 19.5343 149.836 19.415L150.122 17.3674C150.135 17.2694 150.219 17.1964 150.318 17.1964H155.115C155.236 17.1964 155.329 17.303 155.312 17.4224L153.913 27.3625C153.899 27.4594 153.958 27.5517 154.052 27.58L157.543 28.6362C157.562 28.6419 157.581 28.6447 157.601 28.6447H165.42C165.54 28.6447 165.633 28.7509 165.616 28.87L165.268 31.4126C165.255 31.5109 165.171 31.5842 165.072 31.5842H155.412Z" fill="white"/>
<path d="M142.547 21.3116C142.646 21.3116 142.73 21.239 142.744 21.1413L142.965 19.5887C142.983 19.4692 142.89 19.3623 142.769 19.3623H141.989C141.868 19.3623 141.776 19.2552 141.793 19.1356L142.169 16.531C142.183 16.4334 142.267 16.361 142.365 16.361H149.359C149.48 16.361 149.573 16.4681 149.556 16.5877L149.18 19.1922C149.166 19.2899 149.082 19.3623 148.983 19.3623H147.966C147.867 19.3623 147.783 19.4349 147.769 19.5326L147.548 21.0851C147.531 21.2047 147.623 21.3116 147.744 21.3116H149.082C149.202 21.3116 149.295 21.4182 149.278 21.5375L148.901 24.2349C148.887 24.3328 148.803 24.4057 148.704 24.4057H147.256C147.156 24.4057 147.072 24.4794 147.059 24.5779L146.625 27.836C146.606 27.973 146.73 28.0863 146.865 28.0557L147.946 27.8109C148.082 27.7803 148.206 27.8947 148.187 28.0322L147.844 30.4584C147.832 30.54 147.771 30.606 147.691 30.6241L141.513 32.0163C141.378 32.0468 141.254 31.933 141.273 31.7958L142.255 24.6311C142.272 24.5119 142.179 24.4057 142.059 24.4057H140.689C140.568 24.4057 140.476 24.2992 140.492 24.1798L140.87 21.4825C140.884 21.3845 140.967 21.3116 141.066 21.3116H142.547Z" fill="white"/>
<path d="M148.046 9.89422C148.189 9.89422 148.285 10.0418 148.227 10.173L147.515 11.7814C147.457 11.9126 147.553 12.0601 147.696 12.0601H150.163C150.284 12.0601 150.377 12.1677 150.359 12.2875L150.016 14.6136C150.001 14.7109 149.918 14.783 149.819 14.783H146.347C146.267 14.783 146.195 14.8303 146.164 14.9032L145.803 15.7457C145.772 15.8186 145.7 15.8659 145.621 15.8659H141.972C141.828 15.8659 141.732 15.7185 141.79 15.5874L143.844 10.9375C143.875 10.8673 143.863 10.7854 143.813 10.7274L143.375 10.2226C143.264 10.0941 143.355 9.89422 143.525 9.89422H148.046Z" fill="white"/>
<path d="M155.155 10.6678C155.261 10.6678 155.348 10.7505 155.353 10.856L155.611 15.8739C155.617 15.9873 155.527 16.0825 155.413 16.0825H151.539C151.434 16.0825 151.347 16.0004 151.341 15.8954L151.055 10.8775C151.048 10.7636 151.139 10.6678 151.253 10.6678H155.155Z" fill="white"/>
<path d="M31.6055 26.666C30.777 26.666 30.1055 27.3375 30.1055 28.1659V39.9287C35.4861 37.3359 39.5918 32.5165 41.227 26.666H31.6055Z" fill="#FF0000"/>
<path d="M42 20.6651C41.821 9.22156 32.4882 0 21.0013 0C9.40255 0 0 9.40203 0 21C0 32.598 9.40255 42 21.0013 42C22.0565 42 23.0936 41.9222 24.107 41.772V27.5651C24.107 27.068 23.704 26.6651 23.2069 26.6651H19.2274C17.5705 26.6651 16.2273 25.3219 16.2273 23.6651C16.2273 22.0082 17.5705 20.6651 19.2274 20.6651H42Z" fill="#2029FF"/>
</svg>
