<?xml version="1.0" encoding="UTF-8"?>
<svg width="52px" height="46px" viewBox="0 0 52 46" version="1.1" xmlns="http://www.w3.org/2000/svg" xmlns:xlink="http://www.w3.org/1999/xlink">
    <title>编组 2@1x</title>
    <defs>
        <path d="M29.7311461,1.75298427 L29.7311461,2.44359101 C29.7317303,3.7342427 28.6858876,4.78066966 27.3958202,4.78066966 L27.3958202,4.78066966 L14.6067416,4.78066966 L14.4898876,4.77774831 C13.253573,4.71756854 12.2696629,3.6956809 12.2696629,2.44359101 L12.2696629,2.44359101 L12.2696629,1.7524 C12.2696629,1.10736629 11.7467416,0.583860674 11.1011236,0.583860674 L11.1011236,0.583860674 L0,0.584444944 L0,13.4383775 C0,14.7290292 1.04642697,15.7754562 2.33707865,15.7754562 L2.33707865,15.7754562 L39.788764,15.7754562 C41.0794157,15.7754562 42.1258427,14.7290292 42.1258427,13.4383775 L42.1258427,13.4383775 L42.1258427,0.584444944 L30.9002697,0.583860674 C30.2546517,0.583860674 29.7311461,1.10795056 29.7311461,1.75298427 L29.7311461,1.75298427 Z" id="path-1"></path>
    </defs>
    <g id="V0.2" stroke="none" stroke-width="1" fill="none" fill-rule="evenodd">
        <g id="配置域名(空白)---V0.2" transform="translate(-935.000000, -608.000000)">
            <g id="编组-3" transform="translate(546.000000, 149.000000)">
                <g id="编组-4" transform="translate(50.000000, 263.000000)">
                    <g id="编组-2" transform="translate(339.000000, 196.000000)">
                        <ellipse id="椭圆形" fill="#F6F6F8" cx="26" cy="40.71958" rx="26" ry="5.25842697"></ellipse>
                        <polygon id="矩形" fill="#AEB8C3" points="13.2727963 16.8813777 38.7856306 16.8813777 47.0921348 26.872389 4.96629213 26.872389"></polygon>
                        <rect id="矩形" fill="#F5F5F7" x="11.4224719" y="0.112838406" width="29.2134831" height="31.5505618" rx="1.16853933"></rect>
                        <rect id="矩形" fill="#DEDEE7" x="15.4831461" y="3.61845638" width="21.0337079" height="11.6853933" rx="1.16853933"></rect>
                        <rect id="矩形备份" fill="#DEDEE7" x="15.4831461" y="18.7729508" width="21.0337079" height="1.75280899" rx="0.876404494"></rect>
                        <rect id="矩形备份-2" fill="#DEDEE7" x="15.4831461" y="23.6087712" width="21.0337079" height="1.75280899" rx="0.876404494"></rect>
                        <g id="编组" transform="translate(4.966292, 26.298466)">
                            <mask id="mask-2" fill="white">
                                <use xlink:href="#path-1"></use>
                            </mask>
                            <g id="Clip-2"></g>
                            <polygon id="Fill-1" fill="#DCE0E8" mask="url(#mask-2)" points="-2.92134831 18.6968045 45.047191 18.6968045 45.047191 -2.33690337 -2.92134831 -2.33690337"></polygon>
                        </g>
                    </g>
                </g>
            </g>
        </g>
    </g>
</svg>