<svg width="128" height="128" viewBox="0 0 128 128" fill="none" xmlns="http://www.w3.org/2000/svg">
<path d="M75.7196 106.188C75.7196 106.188 64.2217 100.385 54.3357 98.071C41.6301 95.0968 19.6706 94.1891 19.6706 94.1891L49.6589 65.2493C49.6589 65.2493 62.0271 64.4945 80.9378 70.2315C99.8485 75.9685 108.616 85.4547 108.616 85.4547L75.7196 106.188Z" fill="black"/>
<path d="M23.6966 76.1206L55.8283 55.8697C55.9015 55.9059 55.9901 55.9495 56.0932 55.9999C56.4289 56.164 56.9189 56.4008 57.5375 56.692C58.7746 57.2744 60.5269 58.0747 62.5892 58.9477C66.7092 60.6917 72.0855 62.7335 77.0693 63.9002C83.4601 65.3962 92.1574 66.3689 99.2383 66.9679C102.783 67.2677 105.929 67.4744 108.19 67.6062C109.211 67.6657 110.052 67.71 110.667 67.7406L81.6484 95.7445C81.5582 95.7482 81.4349 95.7525 81.2792 95.7564C80.9102 95.7657 80.3596 95.7727 79.6386 95.7634C78.1967 95.7447 76.0737 95.6605 73.3604 95.3977C67.9339 94.8721 60.1469 93.6324 50.7264 90.7744C41.3243 87.9221 34.45 84.1397 29.9312 81.0761C27.6717 79.5442 26.0011 78.1919 24.898 77.2255C24.3666 76.7599 23.9669 76.384 23.6966 76.1206Z" fill="white" stroke="#E2B578"/>
<path d="M59.6758 62.7383L65.6978 64.5638L43.0755 79.5369L37.0535 77.7114L59.6758 62.7383Z" fill="#F4F4F4"/>
<path d="M71.7829 66.4531L77.805 68.2787L53.9427 85.7008L47.9206 83.8752L71.7829 66.4531Z" fill="#F4F4F4"/>
<path d="M83.8846 69.8125L89.9066 71.638L70.1653 85.6998L64.1433 83.8743L83.8846 69.8125Z" fill="#F4F4F4"/>
<ellipse cx="62.863" cy="87.3247" rx="2.83496" ry="1.62549" fill="#F4F4F4"/>
<path d="M100.191 33.7883L99.9118 35.5917C99.6886 37.0339 100.107 38.5015 101.056 39.6097L102.243 40.9955L100.44 40.7164C98.9978 40.4931 97.5301 40.9111 96.4219 41.8605L95.0361 43.0478L95.3153 41.2444C95.5385 39.8023 95.1206 38.3347 94.1711 37.2265L92.9838 35.8407L94.7872 36.1198C96.2293 36.343 97.697 35.9251 98.8052 34.9757L100.191 33.7883Z" fill="black"/>
<path d="M22.5308 44.6569L22.4712 45.0419C22.248 46.4841 22.6659 47.9517 23.6154 49.0599L23.8689 49.3557L23.4839 49.2962C22.0418 49.0729 20.5741 49.4909 19.4659 50.4403L19.1701 50.6938L19.2297 50.3088C19.4529 48.8667 19.0349 47.399 18.0855 46.2908L17.832 45.995L18.217 46.0546C19.6591 46.2778 21.1268 45.8599 22.235 44.9104L22.5308 44.6569Z" fill="black"/>
<path d="M64.357 23.4929L64.2974 23.8779C64.0742 25.32 64.4921 26.7877 65.4416 27.8958L65.695 28.1917L65.31 28.1321C63.8679 27.9089 62.4003 28.3268 61.2921 29.2763L60.9962 29.5297L61.0558 29.1447C61.279 27.7026 60.8611 26.235 59.9117 25.1268L59.6582 24.8309L60.0432 24.8905C61.4853 25.1137 62.953 24.6958 64.0611 23.7464L64.357 23.4929Z" fill="black"/>
<path d="M83.8901 67.4753C83.8901 67.4753 104.293 44.1258 106.534 57.6562C107.386 62.7961 104.756 64.0186 100.426 64.736C96.0958 65.4533 108.617 40.929 108.617 40.929" stroke="black" stroke-width="0.3"/>
</svg>
