<?xml version="1.0" encoding="UTF-8"?>
<svg width="30px" height="33px" viewBox="0 0 30 33" version="1.1" xmlns="http://www.w3.org/2000/svg" xmlns:xlink="http://www.w3.org/1999/xlink">
    <title>qianjin@1x</title>
    <g id="页面-1" stroke="none" stroke-width="1" fill="none" fill-rule="evenodd">
        <g id="jinru-9" fill="#636363" fill-rule="nonzero">
            <path d="M0.837398126,0.0522535434 C1.2425891,-0.0717071402 1.68358972,0.0284333707 1.99427933,0.314953114 L1.99427933,0.314953114 L18.6081456,15.6363556 C18.8499716,15.8593564 18.9873801,16.1722911 18.9873801,16.500026 C18.9873801,16.8277608 18.8499716,17.1406955 18.6081456,17.3636964 L18.6081456,17.3636964 L1.99427933,32.6850988 C1.77505815,32.8878547 1.48651093,33.0004025 1.18694927,33 C0.698984493,33 0.260794472,32.7032354 0.0824678363,32.2521364 C-0.0958587994,31.8010374 0.0220325127,31.287508 0.379619207,30.957758 L0.379619207,30.957758 L16.057843,16.500026 L0.379248362,2.04229392 C0.0685587426,1.75577418 -0.0646187212,1.32640438 0.0298826328,0.915923953 C0.124383987,0.505443528 0.432207154,0.176214227 0.837398126,0.0522535434 Z M11.850018,0.0522535434 C12.255209,-0.0717071402 12.6962096,0.0284333707 13.0068993,0.314953114 L13.0068993,0.314953114 L29.6207655,15.6363556 C29.8625915,15.8593564 30,16.1722911 30,16.500026 C30,16.8277608 29.8625915,17.1406955 29.6207655,17.3636964 L29.6207655,17.3636964 L13.0068993,32.6850988 C12.7876781,32.8878547 12.4991309,33.0004025 12.1995692,33 C11.7116044,33 11.2734144,32.7032354 11.0950878,32.2521364 C10.9167611,31.8010374 11.0346524,31.287508 11.3922391,30.957758 L11.3922391,30.957758 L27.0704629,16.500026 L11.3918683,2.04229392 C11.0811787,1.75577418 10.9480012,1.32640438 11.0425026,0.915923953 C11.1370039,0.505443528 11.4448271,0.176214227 11.850018,0.0522535434 Z" id="qianjin"></path>
        </g>
    </g>
</svg>