<?xml version="1.0" encoding="UTF-8"?>
<svg width="30px" height="30px" viewBox="0 0 30 30" version="1.1" xmlns="http://www.w3.org/2000/svg" xmlns:xlink="http://www.w3.org/1999/xlink">
    <title>success@1x</title>
    <defs>
        <filter id="filter-1">
            <feColorMatrix in="SourceGraphic" type="matrix" values="0 0 0 0 0.462745 0 0 0 0 0.776471 0 0 0 0 0.113725 0 0 0 1.000000 0"></feColorMatrix>
        </filter>
    </defs>
    <g id="页面-1" stroke="none" stroke-width="1" fill="none" fill-rule="evenodd">
        <g filter="url(#filter-1)" id="success">
            <g>
                <path d="M15.0014573,30 L14.96217,30 C6.69264687,29.9789124 -0.019557785,23.2329956 4.28184268e-05,14.9620558 C0.009924419,10.955781 1.57986857,7.1924501 4.42056959,4.3657378 C7.2514656,1.55027445 11.0063836,0 14.9986031,0 L15.0378903,0 C19.0441793,0.0098386418 22.807492,1.57838006 25.6341906,4.4190948 C28.4595126,7.2598767 30.0097459,11.0302256 29.9999539,15.0379107 C29.9900688,19.0441855 28.4215349,22.8075163 25.5808339,25.6328183 C22.7499379,28.4497591 18.9936432,30 15.0014237,30 L15.0014573,30 Z M14.9986366,2.15684519 C11.5807493,2.15684519 8.36507358,3.48388657 5.94138793,5.89492465 C3.50927399,8.31442464 2.16541604,11.5371339 2.15695092,14.9676634 C2.14016476,22.0492022 7.88761634,27.8248207 14.9677441,27.8430541 L15.0014573,27.8430541 C18.4193446,27.8430541 21.6350203,26.5160127 24.058706,24.1035979 C26.4908199,21.6840979 27.8346779,18.462799 27.8431457,15.0322358 C27.8515009,11.6017398 26.5245666,8.37197901 24.1050783,5.94126364 C21.68559,3.50913796 18.4628964,2.16527351 15.0323834,2.15684519 L14.9986366,2.15684519 Z" id="形状" fill="#231815" fill-rule="nonzero"></path>
                <path d="M13.5623939,20.8333333 C13.2998992,20.833596 13.0466278,20.7376715 12.8515469,20.564105 C12.4159113,20.1759504 12.3799638,19.5131102 12.7727403,19.0812281 L21.4812858,9.51305409 C21.8754181,9.08394988 22.5461508,9.04836005 22.9817864,9.43517478 C23.4174221,9.82329675 23.4533695,10.4861369 23.0605931,10.918019 L14.3520806,20.486193 C14.1505203,20.7072621 13.8635066,20.8333333 13.5623939,20.8333333 L13.5623939,20.8333333 Z" id="路径" fill="#231815" fill-rule="nonzero"></path>
                <path d="M13.0689074,20.8333333 C12.7773109,20.8333333 12.4857144,20.722404 12.2698967,20.5032324 L6.96537623,15.106969 C6.54939573,14.6837243 6.57086128,14.0180875 7.01114434,13.6195372 C7.45426441,13.220987 8.14895527,13.2415221 8.563466,13.6633912 L13.8679865,19.0596546 C14.2839328,19.4828993 14.2624673,20.1485362 13.8221842,20.5470864 C13.6184985,20.7312381 13.3489514,20.8336663 13.0689074,20.8333333 L13.0689074,20.8333333 Z" id="路径" fill="#231815" fill-rule="nonzero"></path>
            </g>
        </g>
    </g>
</svg>