<?xml version="1.0" encoding="UTF-8"?>
<svg width="60px" height="60px" viewBox="0 0 60 60" version="1.1" xmlns="http://www.w3.org/2000/svg" xmlns:xlink="http://www.w3.org/1999/xlink">
    <title>GXSL</title>
    <g id="页面-1" stroke="none" stroke-width="1" fill="none" fill-rule="evenodd">
        <g id="GXSL" fill-rule="nonzero">
            <path d="M45.1358486,37.7677532 C43.9636291,37.7677532 43.0132745,38.723757 43.0132745,39.9032518 L43.0132745,56.6516299 C50.6267584,52.9599157 56.4361039,46.0979666 58.7498384,37.7677532 L45.1358486,37.7677532 Z" id="路径" fill="#FF0000"></path>
            <path d="M59.7989426,29.4225747 C59.5440496,13.1295057 46.2562263,1.18392469e-13 29.9014646,1.18392469e-13 C13.3871893,1.18392469e-13 1.18392469e-13,13.3864667 1.18392469e-13,29.8994713 C1.18392469e-13,46.412451 13.3871893,59.7989426 29.9014646,59.7989426 C31.4036639,59.7989426 32.8801994,59.6883146 34.3230981,59.4742842 L34.3230981,39.2467935 C34.3230981,38.5389235 33.7495266,37.965352 33.0416566,37.965352 L27.3757068,37.965352 C25.0166385,37.965352 23.1040939,36.0530317 23.1040939,33.6939634 C23.1040939,31.3348951 25.0166385,29.4225747 27.3757068,29.4225747 L59.7989426,29.4225747 Z" id="路径" fill="#4850FF"></path>
        </g>
    </g>
</svg>